<svg width="80" height="16" viewBox="0 0 80 16" fill="none" xmlns="http://www.w3.org/2000/svg">
<path d="M1 8.48683L3.88302 9.43372V14.5336H1V8.48683Z" fill="url(#paint0_linear_1002_304)"/>
<path d="M18.2693 8.48683L15.3935 9.43372V14.5336H18.2693V8.48683Z" fill="url(#paint1_linear_1002_304)"/>
<path d="M3.88302 9.43372V7.58625L6.76245 8.77886L6.76607 14.5336H3.88302V9.43372Z" fill="url(#paint2_linear_1002_304)"/>
<path d="M15.3935 7.58625L12.5104 8.77886V14.5336H15.3935V7.58625Z" fill="url(#paint3_linear_1002_304)"/>
<path d="M6.76245 8.77886L6.76607 7.05666L9.64188 5.24146V14.5336H6.76245V8.77886Z" fill="url(#paint4_linear_1002_304)"/>
<path d="M12.5104 8.77886V7.05666L9.64188 5.24146V14.5336H12.5104V8.77886Z" fill="url(#paint5_linear_1002_304)"/>
<path d="M3.88286 6.52219L1 5.3104V14.8239H3.88286M3.88286 6.52219V14.8239M3.88286 6.52219V3.4077L6.76213 4.61921M3.88286 14.8239H6.76575M15.3927 14.8239V6.52219L18.2683 5.3104V14.8239H15.3927ZM15.3927 14.8239H12.5098M15.3927 14.8239V3.4077L12.5098 4.61921M6.76213 4.61921L6.76575 14.8239M6.76213 4.61921L6.76575 1.17603L9.64139 2.58938M6.76575 14.8239H9.64139M12.5098 4.61921V14.8239M12.5098 4.61921V1.17603L9.64139 2.58938M12.5098 14.8239H9.64139M9.64139 2.58938V14.8239" stroke="url(#paint6_linear_1002_304)" stroke-width="0.65"/>
<path d="M27.1923 14.0771C26.9281 14.0771 26.6309 14.0554 26.3006 14.0119C25.9836 13.9685 25.6797 13.9142 25.3891 13.849C25.1116 13.7838 24.8937 13.7132 24.7351 13.6372C24.6427 13.5937 24.57 13.5503 24.5172 13.5068C24.4775 13.4525 24.4577 13.3656 24.4577 13.2461L24.3586 10.688C24.3586 10.4708 24.4445 10.3622 24.6163 10.3622C24.7616 10.3622 24.8606 10.4599 24.9135 10.6555L25.0918 11.2746C25.541 12.8279 26.3799 13.6046 27.6085 13.6046C28.269 13.6046 28.7908 13.4254 29.1739 13.0669C29.5702 12.6976 29.7684 12.1816 29.7684 11.519C29.7684 10.8781 29.5636 10.2807 29.1541 9.72672C28.7578 9.17274 28.1171 8.62419 27.232 8.08107C26.2544 7.50536 25.541 6.95138 25.0918 6.41912C24.6427 5.876 24.4181 5.30029 24.4181 4.69199C24.4181 3.88817 24.755 3.24729 25.4287 2.76935C26.1157 2.28054 26.9876 2.03613 28.0444 2.03613C28.4407 2.03613 28.8238 2.07415 29.1937 2.15019C29.5636 2.22622 29.8675 2.33485 30.1053 2.47606C30.1845 2.51951 30.244 2.56839 30.2836 2.6227C30.3365 2.67702 30.3629 2.74762 30.3629 2.83452L30.4223 5.29486C30.4223 5.47952 30.3365 5.57185 30.1647 5.57185C30.0458 5.57185 29.96 5.49581 29.9071 5.34374L29.7684 4.9364C29.4778 4.09999 29.1739 3.4917 28.8569 3.11151C28.553 2.72046 28.1105 2.52494 27.5292 2.52494C26.9611 2.52494 26.5054 2.67701 26.1619 2.98116C25.8316 3.28531 25.6665 3.71438 25.6665 4.26836C25.6665 4.73544 25.8514 5.1808 26.2213 5.60444C26.5912 6.02807 27.2386 6.54404 28.1633 7.15233C29.1541 7.81494 29.8741 8.45582 30.3232 9.07498C30.7856 9.68327 31.0168 10.335 31.0168 11.0302C31.0168 11.6385 30.8517 12.1708 30.5214 12.627C30.1911 13.0832 29.7354 13.4417 29.1541 13.7024C28.5861 13.9522 27.9321 14.0771 27.1923 14.0771Z" fill="white"/>
<path d="M34.1324 14.0771C33.67 14.0771 33.2869 13.9468 32.9831 13.6861C32.6924 13.4145 32.5471 12.9746 32.5471 12.3663V6.27248C32.5471 6.14213 32.4679 6.07695 32.3093 6.07695H31.7347C31.5233 6.07695 31.4176 6.01178 31.4176 5.88143C31.4176 5.79453 31.4771 5.71849 31.596 5.65332C32.0319 5.40348 32.382 5.13735 32.6462 4.85493C32.9104 4.56164 33.1416 4.16517 33.3398 3.66549C33.4322 3.43738 33.5445 3.32333 33.6766 3.32333C33.822 3.32333 33.8946 3.41023 33.8946 3.58403V5.39262C33.8946 5.54469 33.9871 5.62073 34.172 5.62073H35.4601C35.6714 5.62073 35.7771 5.69677 35.7771 5.84884C35.7771 6.00092 35.6714 6.07695 35.4601 6.07695H34.172C33.9871 6.07695 33.8946 6.15299 33.8946 6.30506V12.3826C33.8946 12.6216 33.9409 12.8117 34.0333 12.9529C34.1258 13.0832 34.2975 13.1484 34.5485 13.1484C34.826 13.1484 35.0505 13.0343 35.2223 12.8062C35.4072 12.5781 35.5261 12.2088 35.579 11.6983C35.6054 11.5462 35.6913 11.4701 35.8366 11.4701C35.9951 11.4701 36.0744 11.5516 36.0744 11.7145C36.0347 12.551 35.8234 13.1538 35.4403 13.5231C35.0704 13.8925 34.6344 14.0771 34.1324 14.0771Z" fill="white"/>
<path d="M39.003 6.66352C39.5446 5.90315 40.1985 5.52297 40.9647 5.52297C41.4007 5.52297 41.7243 5.63159 41.9357 5.84884C42.1471 6.05523 42.2528 6.28877 42.2528 6.54947C42.2528 6.75585 42.1867 6.92422 42.0546 7.05457C41.9357 7.18492 41.7442 7.25009 41.4799 7.25009C41.2686 7.25009 41.1101 7.21207 41.0044 7.13604C40.9119 7.04914 40.8326 6.95138 40.7666 6.84275C40.7137 6.73413 40.6477 6.6418 40.5684 6.56576C40.4892 6.47886 40.357 6.43541 40.1721 6.43541C39.9343 6.43541 39.7097 6.5549 39.4984 6.79387C39.287 7.02198 39.1086 7.33156 38.9633 7.72261C38.8312 8.11366 38.7652 8.55901 38.7652 9.05869V12.8388C38.7652 13.0669 38.8048 13.2299 38.8841 13.3276C38.9765 13.4254 39.1615 13.4851 39.4389 13.5068L39.9739 13.5557C40.1193 13.5775 40.1919 13.6372 40.1919 13.735C40.1919 13.8653 40.0928 13.9305 39.8947 13.9305H36.5458C36.3476 13.9305 36.2485 13.8707 36.2485 13.7513C36.2485 13.6535 36.3344 13.5883 36.5061 13.5557L36.7439 13.5231C37.0214 13.4797 37.1997 13.4145 37.279 13.3276C37.3714 13.2299 37.4177 13.0669 37.4177 12.8388V7.36415C37.4177 7.16862 37.378 7.03828 37.2988 6.9731C37.2327 6.89706 37.1072 6.84818 36.9223 6.82646L36.5061 6.77758C36.3344 6.76672 36.2485 6.70697 36.2485 6.59835C36.2485 6.51145 36.3542 6.4517 36.5656 6.41912C36.9751 6.36481 37.2856 6.27791 37.4969 6.15842C37.7215 6.03893 37.9527 5.89229 38.1905 5.71849C38.3094 5.62073 38.4085 5.57185 38.4877 5.57185C38.6066 5.57185 38.6661 5.63702 38.6661 5.76737V6.64723C38.6661 6.72327 38.7057 6.77215 38.785 6.79387C38.8642 6.80473 38.9369 6.76128 39.003 6.66352Z" fill="white"/>
<path d="M43.8932 14.0771C43.3383 14.0771 42.8825 13.9359 42.5259 13.6535C42.1692 13.3602 41.9908 12.9746 41.9908 12.4966C41.9908 12.0296 42.1692 11.5896 42.5259 11.1769C42.8825 10.7532 43.3713 10.373 43.9922 10.0363C44.6131 9.69957 45.3199 9.42801 46.1126 9.22162C46.2843 9.17817 46.3702 9.08584 46.3702 8.94463V7.46191C46.3702 6.94051 46.2711 6.57119 46.0729 6.35394C45.8748 6.12583 45.6039 6.01178 45.2605 6.01178C44.9302 6.01178 44.6264 6.1367 44.3489 6.38653C44.0847 6.6255 43.8932 7.03285 43.7743 7.60855C43.7082 7.95615 43.5629 8.21142 43.3383 8.37435C43.1269 8.52643 42.909 8.60246 42.6844 8.60246C42.3145 8.60246 42.1295 8.45039 42.1295 8.14624C42.1295 7.83123 42.2352 7.52165 42.4466 7.21751C42.6712 6.9025 42.9618 6.62007 43.3185 6.37024C43.6752 6.10954 44.0649 5.90315 44.4876 5.75108C44.9104 5.59901 45.3331 5.52297 45.7559 5.52297C47.0637 5.52297 47.7176 6.14756 47.7176 7.39674V12.3826C47.7176 12.8388 47.8564 13.0669 48.1338 13.0669C48.3055 13.0669 48.464 12.9746 48.6094 12.7899C48.7547 12.5944 48.8273 12.2685 48.8273 11.8123C48.8273 11.6385 48.9132 11.5516 49.0849 11.5516C49.2435 11.5516 49.3227 11.6439 49.3227 11.8286C49.3227 12.6216 49.151 13.1973 48.8075 13.5557C48.4773 13.9033 48.1008 14.0771 47.678 14.0771C47.361 14.0771 47.11 13.9739 46.925 13.7675C46.7401 13.5503 46.6146 13.295 46.5485 13.0017C46.5353 12.8931 46.4758 12.8388 46.3702 12.8388C46.2777 12.8279 46.1852 12.8768 46.0927 12.9854C45.7757 13.3439 45.452 13.6155 45.1218 13.8001C44.7915 13.9848 44.382 14.0771 43.8932 14.0771ZM44.4282 13.3276C44.7717 13.3276 45.0887 13.2299 45.3794 13.0343C45.67 12.8279 45.9078 12.5564 46.0927 12.2196C46.2777 11.8829 46.3702 11.5027 46.3702 11.0791V9.88966C46.3702 9.68327 46.2314 9.62353 45.954 9.71043C45.1482 9.9494 44.5207 10.2807 44.0715 10.7043C43.6356 11.1171 43.4176 11.6168 43.4176 12.2034C43.4176 12.9529 43.7545 13.3276 44.4282 13.3276Z" fill="white"/>
<path d="M51.8305 14.0771C51.3682 14.0771 50.9851 13.9468 50.6812 13.6861C50.3906 13.4145 50.2453 12.9746 50.2453 12.3663V6.27248C50.2453 6.14213 50.166 6.07695 50.0075 6.07695H49.4328C49.2214 6.07695 49.1158 6.01178 49.1158 5.88143C49.1158 5.79453 49.1752 5.71849 49.2941 5.65332C49.7301 5.40348 50.0801 5.13735 50.3443 4.85493C50.6086 4.56164 50.8397 4.16517 51.0379 3.66549C51.1304 3.43738 51.2427 3.32333 51.3748 3.32333C51.5201 3.32333 51.5928 3.41023 51.5928 3.58403V5.39262C51.5928 5.54469 51.6852 5.62073 51.8702 5.62073H53.1582C53.3696 5.62073 53.4753 5.69677 53.4753 5.84884C53.4753 6.00092 53.3696 6.07695 53.1582 6.07695H51.8702C51.6852 6.07695 51.5928 6.15299 51.5928 6.30506V12.3826C51.5928 12.6216 51.639 12.8117 51.7315 12.9529C51.8239 13.0832 51.9957 13.1484 52.2467 13.1484C52.5241 13.1484 52.7487 13.0343 52.9204 12.8062C53.1054 12.5781 53.2243 12.2088 53.2771 11.6983C53.3035 11.5462 53.3894 11.4701 53.5347 11.4701C53.6932 11.4701 53.7725 11.5516 53.7725 11.7145C53.7329 12.551 53.5215 13.1538 53.1384 13.5231C52.7685 13.8925 52.3325 14.0771 51.8305 14.0771Z" fill="white"/>
<path d="M55.9085 4.07284C55.631 4.07284 55.3932 3.99137 55.1951 3.82843C55.0101 3.6655 54.9177 3.45911 54.9177 3.20927C54.9177 2.95944 55.0101 2.75848 55.1951 2.60641C55.3932 2.44347 55.631 2.36201 55.9085 2.36201C56.1859 2.36201 56.4171 2.44347 56.602 2.60641C56.787 2.75848 56.8794 2.95944 56.8794 3.20927C56.8794 3.45911 56.787 3.6655 56.602 3.82843C56.4171 3.99137 56.1859 4.07284 55.9085 4.07284ZM54.2439 13.9305C54.0458 13.9305 53.9467 13.8707 53.9467 13.7513C53.9467 13.6535 54.0325 13.5883 54.2043 13.5557L54.4421 13.5231C54.7723 13.4797 54.9837 13.4145 55.0762 13.3276C55.1687 13.2299 55.2149 13.0669 55.2149 12.8388V7.36415C55.2149 7.16862 55.1753 7.03828 55.096 6.9731C55.0299 6.89706 54.9044 6.84818 54.7195 6.82646L54.3034 6.77758C54.1316 6.76672 54.0457 6.70697 54.0457 6.59835C54.0457 6.51145 54.1514 6.4517 54.3628 6.41912C54.7723 6.36481 55.1026 6.27791 55.3536 6.15842C55.6046 6.03893 55.849 5.89229 56.0868 5.71849C56.2057 5.62073 56.3048 5.57185 56.384 5.57185C56.5029 5.57185 56.5624 5.63702 56.5624 5.76737V12.8388C56.5624 13.0669 56.602 13.2299 56.6813 13.3276C56.7605 13.4254 56.9125 13.4851 57.137 13.5068L57.6324 13.5557C57.7778 13.5775 57.8504 13.6372 57.8504 13.735C57.8504 13.8653 57.7513 13.9305 57.5532 13.9305H54.2439Z" fill="white"/>
<path d="M61.0538 14.0771C60.7235 14.0771 60.4065 14.0174 60.1026 13.8979C59.7988 13.7784 59.5478 13.5883 59.3496 13.3276C59.1515 13.0669 59.0524 12.7193 59.0524 12.2848V6.61464C59.0524 6.41912 59.0127 6.28334 58.9335 6.2073C58.8674 6.13126 58.7419 6.08781 58.557 6.07695L58.2201 6.04436C57.9955 6.02264 57.8832 5.95203 57.8832 5.83255C57.8832 5.69134 58.0087 5.62073 58.2597 5.62073H60.1026C60.3008 5.62073 60.3999 5.7022 60.3999 5.86513V11.9427C60.3999 12.4423 60.5122 12.8008 60.7367 13.018C60.9745 13.2244 61.2982 13.3276 61.7077 13.3276C62.1172 13.3276 62.4805 13.2353 62.7976 13.0506C63.1147 12.8551 63.3657 12.5998 63.5506 12.2848C63.7488 11.959 63.8478 11.6059 63.8478 11.2257V6.61464C63.8478 6.41912 63.8082 6.28334 63.729 6.2073C63.6629 6.13126 63.5374 6.08781 63.3524 6.07695L63.0156 6.04436C62.791 6.02264 62.6787 5.95203 62.6787 5.83255C62.6787 5.69134 62.8042 5.62073 63.0552 5.62073H64.8981C65.0963 5.62073 65.1953 5.7022 65.1953 5.86513V12.1871C65.1953 12.3826 65.2284 12.5184 65.2944 12.5944C65.3737 12.6596 65.5058 12.703 65.6907 12.7248L66.1069 12.7736C66.2786 12.7845 66.3645 12.8388 66.3645 12.9366C66.3645 13.0343 66.2588 13.0995 66.0474 13.1321C65.6379 13.1755 65.3076 13.2624 65.0566 13.3928C64.8188 13.5231 64.6075 13.6806 64.4225 13.8653C64.3036 13.9631 64.2045 14.0119 64.1253 14.0119C64.0064 14.0119 63.9469 13.9468 63.9469 13.8164V13.0669C63.9469 12.98 63.9073 12.9311 63.828 12.9203C63.762 12.8986 63.6893 12.9203 63.6101 12.9854C63.1213 13.3874 62.6853 13.6698 62.3022 13.8327C61.9323 13.9957 61.5162 14.0771 61.0538 14.0771Z" fill="white"/>
<path d="M66.8619 13.9305C66.6637 13.9305 66.5646 13.8707 66.5646 13.7513C66.5646 13.6535 66.6505 13.5883 66.8223 13.5557L67.06 13.5231C67.3375 13.4797 67.5158 13.4145 67.5951 13.3276C67.6875 13.2299 67.7338 13.0669 67.7338 12.8388V7.36415C67.7338 7.16862 67.6942 7.03828 67.6149 6.9731C67.5488 6.89706 67.4233 6.84818 67.2384 6.82646L66.8223 6.77758C66.6505 6.76672 66.5646 6.70697 66.5646 6.59835C66.5646 6.51145 66.6703 6.4517 66.8817 6.41912C67.2912 6.36481 67.6017 6.27791 67.8131 6.15842C68.0376 6.03893 68.2688 5.89229 68.5066 5.71849C68.6255 5.62073 68.7246 5.57185 68.8039 5.57185C68.9227 5.57185 68.9822 5.63702 68.9822 5.76737V6.50059C68.9822 6.57662 69.0218 6.63637 69.1011 6.67982C69.1804 6.7124 69.2662 6.69068 69.3587 6.61464C69.9003 6.19101 70.3693 5.90315 70.7656 5.75108C71.1752 5.59901 71.5847 5.52297 71.9942 5.52297C72.3773 5.52297 72.7142 5.60987 73.0048 5.78367C73.3087 5.9466 73.5333 6.19644 73.6786 6.53317C73.7182 6.62007 73.7843 6.67438 73.8767 6.69611C73.9824 6.70697 74.0815 6.67439 74.174 6.59835C74.7156 6.18558 75.1846 5.90315 75.5809 5.75108C75.9772 5.59901 76.3802 5.52297 76.7897 5.52297C77.3445 5.52297 77.7937 5.69677 78.1372 6.04436C78.4939 6.3811 78.6722 6.88077 78.6722 7.54338V12.8388C78.6722 13.0669 78.7118 13.2299 78.7911 13.3276C78.8836 13.4145 79.0685 13.4743 79.3459 13.5068L79.7819 13.5557C79.9272 13.5775 79.9999 13.6426 79.9999 13.7513C79.9999 13.8707 79.9206 13.9305 79.7621 13.9305H76.3736C76.1886 13.9305 76.0961 13.8707 76.0961 13.7513C76.0961 13.6426 76.1688 13.5775 76.3141 13.5557L76.5915 13.5231C76.8954 13.4906 77.0935 13.4254 77.186 13.3276C77.2785 13.2299 77.3247 13.0669 77.3247 12.8388V7.72261C77.3247 7.19035 77.2058 6.8156 76.968 6.59835C76.7435 6.3811 76.433 6.27248 76.0367 6.27248C75.6404 6.27248 75.2771 6.37567 74.9468 6.58205C74.6297 6.77758 74.3721 7.04371 74.174 7.38044C73.9758 7.70631 73.8767 8.07021 73.8767 8.47212V12.8388C73.8767 13.0669 73.923 13.2299 74.0155 13.3276C74.1079 13.4145 74.2995 13.4743 74.5901 13.5068L75.0261 13.5557C75.1714 13.5775 75.244 13.6426 75.244 13.7513C75.244 13.8707 75.1648 13.9305 75.0062 13.9305H71.6375C71.4526 13.9305 71.3601 13.8707 71.3601 13.7513C71.3601 13.6426 71.4328 13.5775 71.5781 13.5557L71.8555 13.5231C72.1329 13.4906 72.3113 13.4254 72.3905 13.3276C72.483 13.2299 72.5293 13.0669 72.5293 12.8388V7.72261C72.5293 7.19035 72.4104 6.8156 72.1726 6.59835C71.948 6.3811 71.6375 6.27248 71.2412 6.27248C70.8449 6.27248 70.4816 6.37567 70.1513 6.58205C69.8343 6.77758 69.5767 7.04371 69.3785 7.38044C69.1804 7.70631 69.0813 8.07021 69.0813 8.47212V12.8388C69.0813 13.0669 69.1209 13.2299 69.2002 13.3276C69.2926 13.4254 69.4776 13.4851 69.755 13.5068L70.29 13.5557C70.4354 13.5775 70.508 13.6372 70.508 13.735C70.508 13.8653 70.4089 13.9305 70.2108 13.9305H66.8619Z" fill="white"/>
<defs>
<linearGradient id="paint0_linear_1002_304" x1="9.63463" y1="7.87783" x2="9.63463" y2="14.5336" gradientUnits="userSpaceOnUse">
<stop stop-color="#294184"/>
<stop offset="1" stop-color="#294184" stop-opacity="0"/>
</linearGradient>
<linearGradient id="paint1_linear_1002_304" x1="9.63463" y1="7.87783" x2="9.63463" y2="14.5336" gradientUnits="userSpaceOnUse">
<stop stop-color="#294184"/>
<stop offset="1" stop-color="#294184" stop-opacity="0"/>
</linearGradient>
<linearGradient id="paint2_linear_1002_304" x1="9.63463" y1="7.87783" x2="9.63463" y2="14.5336" gradientUnits="userSpaceOnUse">
<stop stop-color="#294184"/>
<stop offset="1" stop-color="#294184" stop-opacity="0"/>
</linearGradient>
<linearGradient id="paint3_linear_1002_304" x1="9.63463" y1="7.87783" x2="9.63463" y2="14.5336" gradientUnits="userSpaceOnUse">
<stop stop-color="#294184"/>
<stop offset="1" stop-color="#294184" stop-opacity="0"/>
</linearGradient>
<linearGradient id="paint4_linear_1002_304" x1="9.63463" y1="7.87783" x2="9.63463" y2="14.5336" gradientUnits="userSpaceOnUse">
<stop stop-color="#294184"/>
<stop offset="1" stop-color="#294184" stop-opacity="0"/>
</linearGradient>
<linearGradient id="paint5_linear_1002_304" x1="9.63463" y1="7.87783" x2="9.63463" y2="14.5336" gradientUnits="userSpaceOnUse">
<stop stop-color="#294184"/>
<stop offset="1" stop-color="#294184" stop-opacity="0"/>
</linearGradient>
<linearGradient id="paint6_linear_1002_304" x1="9.51399" y1="1.50501" x2="9.51399" y2="14.8239" gradientUnits="userSpaceOnUse">
<stop stop-color="white"/>
<stop offset="1" stop-color="white"/>
</linearGradient>
</defs>
</svg>
